<svg width="18" height="18" viewBox="0 0 18 18" fill="none" xmlns="http://www.w3.org/2000/svg">
<path d="M17.6638 15.771C17.6638 15.771 16.5052 16.909 16.2212 17.2427C15.7587 17.7363 15.2137 17.9693 14.4992 17.9693C14.4305 17.9693 14.3573 17.9693 14.2886 17.9648C12.9284 17.8779 11.6644 17.3478 10.7164 16.8953C8.12431 15.643 5.8482 13.8652 3.95678 11.612C2.3951 9.73359 1.35093 7.99687 0.659397 6.13217C0.233485 4.99415 0.0777753 4.1075 0.146471 3.27113C0.192268 2.7364 0.398354 2.29308 0.778469 1.91374L2.34015 0.355256C2.56455 0.14502 2.8027 0.0307617 3.03626 0.0307617C3.32478 0.0307617 3.55835 0.204435 3.7049 0.350686C3.70948 0.355256 3.71406 0.359827 3.71864 0.364397C3.998 0.624906 4.26362 0.894556 4.54298 1.18249C4.68495 1.32874 4.8315 1.47499 4.97805 1.62581L6.22831 2.87351C6.71376 3.35797 6.71376 3.80586 6.22831 4.29032C6.0955 4.42286 5.96727 4.5554 5.83446 4.68337C5.44976 5.07642 5.75196 4.77483 5.35353 5.13132C5.34437 5.14046 5.33521 5.14503 5.33063 5.15417C4.93677 5.54722 5.01005 5.93113 5.09248 6.19164C5.09706 6.20535 5.10164 6.21906 5.10622 6.23277C5.43138 7.01887 5.88935 7.75926 6.58547 8.64134L6.59005 8.64591C7.85404 10.1998 9.18673 11.411 10.6568 12.3387C10.8446 12.4576 11.0369 12.5536 11.2201 12.645C11.385 12.7272 11.5407 12.8049 11.6735 12.8872C11.6918 12.8963 11.7101 12.91 11.7285 12.9192C11.8842 12.9969 12.0307 13.0334 12.1819 13.0334C12.562 13.0334 12.8001 12.7958 12.878 12.7181L13.7757 11.8222C13.9314 11.6668 14.1787 11.4795 14.4672 11.4795C14.7511 11.4795 14.9847 11.6577 15.1267 11.8131C15.1312 11.8177 15.1312 11.8177 15.1358 11.8222L17.6592 14.3405C18.1309 14.8067 17.6638 15.771 17.6638 15.771Z" fill="#6882B6"/>
</svg>
