<svg width="18" height="18" viewBox="0 0 18 18" fill="none" xmlns="http://www.w3.org/2000/svg">
<path d="M5 4.09922V4.84922C5.26675 4.84922 5.51343 4.70754 5.64783 4.47712L5 4.09922ZM6.4 1.69922V0.949219C6.13325 0.949219 5.88657 1.0909 5.75216 1.32132L6.4 1.69922ZM11.6 1.69922L12.2478 1.32132C12.1134 1.0909 11.8667 0.949219 11.6 0.949219V1.69922ZM13 4.09922L12.3522 4.47712C12.4866 4.70754 12.7332 4.84922 13 4.84922V4.09922ZM1.75 14.2992V6.09922H0.25V14.2992H1.75ZM3 4.84922H5V3.34922H3V4.84922ZM5.64783 4.47712L7.04783 2.07712L5.75216 1.32132L4.35217 3.72132L5.64783 4.47712ZM6.4 2.44922H11.6V0.949219H6.4V2.44922ZM10.9522 2.07712L12.3522 4.47712L13.6478 3.72132L12.2478 1.32132L10.9522 2.07712ZM13 4.84922H15V3.34922H13V4.84922ZM16.25 6.09922V14.2992H17.75V6.09922H16.25ZM16.25 14.2992C16.25 14.9896 15.6904 15.5492 15 15.5492V17.0492C16.5188 17.0492 17.75 15.818 17.75 14.2992H16.25ZM15 4.84922C15.6904 4.84922 16.25 5.40886 16.25 6.09922H17.75C17.75 4.58044 16.5188 3.34922 15 3.34922V4.84922ZM1.75 6.09922C1.75 5.40886 2.30964 4.84922 3 4.84922V3.34922C1.48122 3.34922 0.25 4.58043 0.25 6.09922H1.75ZM3 15.5492C2.30964 15.5492 1.75 14.9896 1.75 14.2992H0.25C0.25 15.818 1.48122 17.0492 3 17.0492V15.5492ZM11.25 9.69922C11.25 10.9419 10.2426 11.9492 9 11.9492V13.4492C11.0711 13.4492 12.75 11.7703 12.75 9.69922H11.25ZM9 11.9492C7.75736 11.9492 6.75 10.9419 6.75 9.69922H5.25C5.25 11.7703 6.92893 13.4492 9 13.4492V11.9492ZM6.75 9.69922C6.75 8.45658 7.75736 7.44922 9 7.44922V5.94922C6.92893 5.94922 5.25 7.62815 5.25 9.69922H6.75ZM9 7.44922C10.2426 7.44922 11.25 8.45658 11.25 9.69922H12.75C12.75 7.62815 11.0711 5.94922 9 5.94922V7.44922ZM15 15.5492H3V17.0492H15V15.5492Z" fill="#4169E1"/>
</svg>
