<svg width="18" height="30" viewBox="0 0 18 30" fill="none" xmlns="http://www.w3.org/2000/svg">
<path fill-rule="evenodd" clip-rule="evenodd" d="M3.80039 26.8266C4.18519 26.8266 4.46639 26.9081 4.64399 27.0711C4.82159 27.2341 4.91049 27.4876 4.9107 27.8316V29.6754H4.3335V27.9096C4.3335 27.5208 4.11549 27.3264 3.67949 27.3264C3.49117 27.3248 3.30627 27.3769 3.14639 27.4764C3.17406 27.5927 3.18706 27.712 3.1851 27.8316V29.6754H2.60789V27.9096C2.60789 27.5208 2.38989 27.3264 1.95389 27.3264C1.75495 27.3266 1.55765 27.3623 1.37129 27.432V29.6754H0.794395V27.1155C0.985394 27.0205 1.18758 26.95 1.39619 26.9055C1.61871 26.8536 1.84631 26.8267 2.07479 26.8251C2.43479 26.8251 2.70229 26.8951 2.87729 27.0351C3.16552 26.8974 3.48097 26.8262 3.80039 26.8266ZM6.88829 29.76C6.44829 29.76 6.1176 29.6341 5.89619 29.3823C5.6748 29.1305 5.56399 28.764 5.56379 28.2828C5.56379 27.309 6.00379 26.8222 6.88379 26.8224C7.32719 26.8224 7.66059 26.9473 7.88399 27.1971C8.10739 27.4469 8.2192 27.8088 8.2194 28.2828C8.2194 28.7564 8.10399 29.121 7.8732 29.3766C7.6424 29.6322 7.31409 29.76 6.88829 29.76ZM6.8826 29.2656C7.3884 29.2656 7.6412 28.938 7.641 28.2828C7.641 27.957 7.581 27.7136 7.461 27.5526C7.341 27.3916 7.14859 27.311 6.88379 27.3108C6.61639 27.3108 6.42499 27.3932 6.3096 27.558C6.1942 27.7228 6.13649 27.9644 6.13649 28.2828C6.13649 28.601 6.19599 28.8444 6.31499 29.013C6.43399 29.1816 6.6232 29.2654 6.8826 29.2644V29.2656ZM10.1463 26.8278C10.5567 26.8278 10.8681 26.9518 11.0805 27.1998C11.2929 27.4478 11.3994 27.7991 11.4 28.2537C11.4 28.8017 11.2727 29.1895 11.0181 29.4171C10.7635 29.6447 10.4399 29.759 10.0473 29.76C9.25949 29.76 8.86559 29.549 8.86559 29.127V25.7715H9.4374V27C9.55238 26.9451 9.67312 26.9031 9.7974 26.8749C9.91149 26.8456 10.0285 26.8294 10.1463 26.8266V26.8278ZM10.0032 29.2545C10.3032 29.2545 10.5132 29.1675 10.6332 28.9935C10.7532 28.8195 10.8132 28.5807 10.8132 28.2771C10.8132 27.9663 10.75 27.7294 10.6236 27.5664C10.4972 27.4034 10.3095 27.322 10.0605 27.3222C9.95201 27.3229 9.84402 27.3368 9.7389 27.3636C9.63366 27.389 9.53263 27.4294 9.4389 27.4836V28.9836C9.4379 29.1636 9.626 29.2535 10.0032 29.2533V29.2545ZM12.0522 25.917H12.6678V26.4447H12.0522V25.917ZM12.0687 26.9055H12.6459L12.6513 29.6766H12.0687V26.9055ZM13.4637 29.6766V25.8327H14.0355V29.6754L13.4637 29.6766ZM15.969 26.82C16.3978 26.82 16.712 26.96 16.9116 27.24C17.1112 27.52 17.2092 27.9115 17.2056 28.4145H15.27C15.2886 28.6885 15.3686 28.8968 15.51 29.0394C15.6514 29.182 15.852 29.2532 16.1118 29.253C16.423 29.2533 16.7293 29.175 17.0022 29.0253V29.5695C16.7164 29.6965 16.389 29.76 16.02 29.76C15.606 29.76 15.2808 29.6332 15.0444 29.3796C14.808 29.126 14.6899 28.766 14.6901 28.2996C14.6901 27.822 14.8018 27.4565 15.0252 27.2031C15.2486 26.9497 15.5632 26.822 15.969 26.82ZM15.9525 27.3C15.7583 27.3 15.6063 27.3519 15.4965 27.4557C15.3867 27.5595 15.3152 27.7353 15.282 27.9831H16.6176C16.5918 27.7461 16.5258 27.5731 16.4196 27.4641C16.3134 27.3551 16.1577 27.3004 15.9525 27.3ZM10.44 4.4538C9.8034 4.2964 9.3134 4.2176 8.97 4.2174C6.4083 4.2174 4.33139 6.2874 4.33139 8.8401C4.33139 11.3928 6.4092 13.4631 8.97 13.4631C11.5308 13.4631 13.6089 11.3931 13.6089 8.8401C13.6091 8.46715 13.5641 8.09555 13.4751 7.7334L17.163 6.7401C17.4617 7.87581 17.5182 9.06167 17.3288 10.2206C17.1394 11.3796 16.7083 12.4858 16.0635 13.4673L9.9567 24.789H4.29929L8.3193 17.379C8.3412 17.3382 8.27669 17.2482 8.22269 17.2434C3.92699 16.8534 0.562195 13.2534 0.562195 8.8707C0.562195 4.227 4.33919 0.462896 8.99879 0.462896C9.85177 0.461958 10.7 0.590109 11.5146 0.842996L10.44 4.4538Z" fill="#006E53"/>
</svg>
