<svg width="22" height="22" viewBox="0 0 22 22" fill="none" xmlns="http://www.w3.org/2000/svg">
<path d="M4.84615 11.0005V6.95453C4.85817 6.15923 5.027 5.37412 5.34298 4.64418C5.65896 3.91424 6.11587 3.25383 6.68754 2.70077C7.2592 2.14771 7.93438 1.71288 8.67439 1.4212C9.4144 1.12952 10.2047 0.986714 11 1.00097C11.7953 0.986714 12.5856 1.12952 13.3256 1.4212C14.0656 1.71288 14.7408 2.14771 15.3125 2.70077C15.8841 3.25383 16.341 3.91424 16.657 4.64418C16.973 5.37412 17.1418 6.15923 17.1538 6.95453V11.0005M14.0769 19.077C14.893 19.077 15.6756 18.7529 16.2526 18.1758C16.8297 17.5988 17.1538 16.8163 17.1538 16.0002V12.5389M14.0769 19.077C14.0769 19.587 13.8743 20.0761 13.5137 20.4368C13.153 20.7974 12.6639 21 12.1538 21H9.84615C9.33612 21 8.84698 20.7974 8.48633 20.4368C8.12569 20.0761 7.92308 19.587 7.92308 19.077C7.92308 18.567 8.12569 18.0779 8.48633 17.7173C8.84698 17.3566 9.33612 17.154 9.84615 17.154H12.1538C12.6639 17.154 13.153 17.3566 13.5137 17.7173C13.8743 18.0779 14.0769 18.567 14.0769 19.077ZM2.53846 8.69291H4.07692C4.28094 8.69291 4.47659 8.77395 4.62085 8.9182C4.76511 9.06245 4.84615 9.2581 4.84615 9.4621V14.0773C4.84615 14.2813 4.76511 14.4769 4.62085 14.6212C4.47659 14.7654 4.28094 14.8465 4.07692 14.8465H2.53846C2.13044 14.8465 1.73912 14.6844 1.4506 14.3959C1.16209 14.1074 1 13.7161 1 13.3081V10.2313C1 9.82329 1.16209 9.43199 1.4506 9.14349C1.73912 8.85499 2.13044 8.69291 2.53846 8.69291ZM19.4615 14.8465H17.9231C17.7191 14.8465 17.5234 14.7654 17.3791 14.6212C17.2349 14.4769 17.1538 14.2813 17.1538 14.0773V9.4621C17.1538 9.2581 17.2349 9.06245 17.3791 8.9182C17.5234 8.77395 17.7191 8.69291 17.9231 8.69291H19.4615C19.8696 8.69291 20.2609 8.85499 20.5494 9.14349C20.8379 9.43199 21 9.82329 21 10.2313V13.3081C21 13.7161 20.8379 14.1074 20.5494 14.3959C20.2609 14.6844 19.8696 14.8465 19.4615 14.8465Z" stroke="#6882B6" stroke-width="2" stroke-linecap="round" stroke-linejoin="round"/>
</svg>
