<svg width="22" height="22" viewBox="0 0 22 22" fill="none" xmlns="http://www.w3.org/2000/svg">
<path d="M20.6 15.5599L20.6 16.3099C21.0142 16.3099 21.35 15.9741 21.35 15.5599H20.6ZM20.6 10.2799H21.35C21.35 9.86568 21.0142 9.52989 20.6 9.52989V10.2799ZM6.27446 5.32901C5.92603 5.553 5.82515 6.01703 6.04914 6.36546C6.27313 6.71389 6.73716 6.81477 7.08559 6.59078L6.27446 5.32901ZM13.4 1.63989L13.992 1.17944C13.7537 0.873029 13.321 0.799099 12.9945 1.00901L13.4 1.63989ZM16.168 6.42035C16.4223 6.74731 16.8935 6.80621 17.2205 6.55191C17.5474 6.29761 17.6063 5.8264 17.352 5.49944L16.168 6.42035ZM20.6 14.8099H17.48L17.48 16.3099H20.6L20.6 14.8099ZM17.48 11.0299H20.6V9.52989L17.48 9.52989V11.0299ZM19.85 10.2799V15.5599H21.35V10.2799H19.85ZM15.59 12.9199C15.59 11.8761 16.4362 11.0299 17.48 11.0299V9.52989C15.6078 9.52989 14.09 11.0476 14.09 12.9199H15.59ZM17.48 14.8099C16.4362 14.8099 15.59 13.9637 15.59 12.9199H14.09C14.09 14.7921 15.6078 16.3099 17.48 16.3099L17.48 14.8099ZM7.08559 6.59078L13.8056 2.27078L12.9945 1.00901L6.27446 5.32901L7.08559 6.59078ZM12.808 2.10035L16.168 6.42035L17.352 5.49944L13.992 1.17944L12.808 2.10035ZM2.36002 6.70989L18.68 6.70989V5.20989L2.36002 5.20989L2.36002 6.70989ZM18.68 19.6099L2.36002 19.6099V21.1099L18.68 21.1099V19.6099ZM2.15002 19.3999L2.15002 6.91989H0.650024L0.650024 19.3999H2.15002ZM2.36002 19.6099C2.24405 19.6099 2.15002 19.5159 2.15002 19.3999H0.650024C0.650024 20.3443 1.41562 21.1099 2.36002 21.1099V19.6099ZM18.89 19.3999C18.89 19.5159 18.796 19.6099 18.68 19.6099V21.1099C19.6244 21.1099 20.39 20.3443 20.39 19.3999H18.89ZM18.68 6.70989C18.796 6.70989 18.89 6.80391 18.89 6.91989L20.39 6.91989C20.39 5.97549 19.6244 5.20989 18.68 5.20989V6.70989ZM2.36002 5.20989C1.41562 5.20989 0.650024 5.97549 0.650024 6.91989H2.15002C2.15002 6.80391 2.24404 6.70989 2.36002 6.70989L2.36002 5.20989ZM18.89 16.2799V19.3999H20.39V16.2799H18.89ZM18.89 6.91989V9.43989L20.39 9.43989V6.91989L18.89 6.91989Z" fill="#4169E1"/>
</svg>
